<svg width="948" height="351" viewBox="0 0 948 351" fill="none" xmlns="http://www.w3.org/2000/svg">
<path d="M35.33 349.686L32.2 340.176H16.38L13.12 349.686H2.15002L19.83 302.536H29.02L46.31 349.686H35.33ZM24.35 315.996L19.25 330.926H29.39L24.35 315.996Z" fill="white"/>
<path d="M115.54 349.686V302.536H126.13V339.606H149.61V349.686H115.54Z" fill="white"/>
<path d="M219.31 349.686V302.536H229.9V339.606H253.38V349.686H219.31Z" fill="white"/>
<path d="M400.6 302.536H411.19V349.686H400.6V302.536Z" fill="white"/>
<path d="M515.65 302.536H525.99V349.686H518.4L495.37 322.376V349.686H484.97V302.536H492.12L515.66 330.096V302.536H515.65Z" fill="white"/>
<path d="M683.81 308.846C688.59 304.056 694.4 301.696 701.36 301.696C708.32 301.696 714.12 304.056 718.84 308.846C723.63 313.566 725.99 319.316 725.99 326.136C725.99 332.956 723.63 338.706 718.91 343.426C714.19 348.086 708.32 350.446 701.3 350.446C694.28 350.446 688.41 348.086 683.75 343.426C679.09 338.766 676.73 333.026 676.73 326.196C676.73 319.376 679.09 313.566 683.81 308.846ZM711.12 336.096C713.74 333.416 715.08 330.096 715.01 326.146C714.95 322.126 713.61 318.746 710.99 316.126C708.37 313.446 705.12 312.106 701.36 312.106C697.53 312.106 694.28 313.446 691.66 316.126C689.04 318.806 687.7 322.126 687.7 326.146C687.7 330.106 689.04 333.416 691.66 336.096C694.28 338.716 697.53 340.056 701.36 340.056C705.25 340.056 708.5 338.716 711.12 336.096Z" fill="white"/>
<path d="M827.84 302.536H838.18V349.686H830.59L807.56 322.376V349.686H797.16V302.536H804.31L827.85 330.096V302.536H827.84Z" fill="white"/>
<path d="M911.95 349.686V302.536H944.88V312.356H922.55V321.096H943.22V330.856H922.55V339.856H944.82V349.676H911.95V349.686Z" fill="white"/>
<path d="M56.91 49.8564H0V6.5564H158.74V49.8564H102.11V207.786H56.91V49.8564Z" fill="white"/>
<path d="M426.68 33.5164C447.1 13.0964 471.88 3.01636 501.56 3.01636C531.24 3.01636 556.01 13.0964 576.17 33.5164C596.59 53.6664 606.66 78.1663 606.66 107.306C606.66 136.446 596.59 160.946 576.44 181.096C556.29 200.976 531.24 211.046 501.29 211.046C471.34 211.046 446.29 200.966 426.41 181.096C406.53 161.226 396.46 136.716 396.46 107.576C396.45 78.4464 406.53 53.6664 426.68 33.5164ZM543.21 149.786C554.37 138.346 560.1 124.186 559.82 107.306C559.55 90.1463 553.83 75.7163 542.67 64.5563C531.5 53.1263 517.62 47.4063 501.55 47.4063C485.21 47.4063 471.32 53.1263 460.16 64.5563C449 75.9963 443.28 90.1463 443.28 107.306C443.28 124.186 449 138.346 460.16 149.786C471.32 160.946 485.21 166.666 501.55 166.666C518.17 166.666 532.05 160.946 543.21 149.786Z" fill="white"/>
<path d="M637.97 207.776V6.5564H683.17V164.756H783.37V207.776H637.97Z" fill="white"/>
<path d="M791.54 174.836L816.05 142.706C831.03 160.406 849.27 169.396 870.78 169.396C886.03 169.396 897.2 162.316 897.2 151.156C897.2 143.796 891.48 137.536 879.77 132.366L861.8 125.836C850.36 121.476 841.65 117.666 835.93 114.666C814.42 102.966 803.53 85.8064 803.53 63.7464C803.53 46.3164 810.07 31.8864 823.41 20.4464C836.75 9.01638 854.18 3.29639 875.15 3.29639C901.83 3.29639 924.7 12.2764 943.49 29.9864L921.16 63.4764C909.45 52.3164 890.66 45.5064 875.68 45.5064C860.43 45.5064 851.72 52.3164 851.72 62.1164C851.72 68.9264 857.17 74.9164 868.06 79.8164L887.67 87.7164C898.02 91.8064 905.64 94.7964 910.81 97.2464C935.04 108.136 947.03 125.296 947.03 148.436C947.03 166.676 939.95 181.926 925.79 193.636C911.9 205.346 893.39 211.336 870.51 211.336C838.65 211.316 810.06 198.526 791.54 174.836Z" fill="white"/>
<path d="M270.98 190.256C226.54 190.256 190.39 154.106 190.39 109.666C190.39 65.2264 226.54 29.0764 270.98 29.0764C315.42 29.0764 351.57 65.2264 351.57 109.666C351.57 154.106 315.42 190.256 270.98 190.256ZM270.98 38.7964C231.9 38.7964 200.11 70.5864 200.11 109.656C200.11 148.726 231.9 180.516 270.98 180.516C310.05 180.516 341.84 148.726 341.84 109.656C341.84 70.5864 310.06 38.7964 270.98 38.7964Z" fill="white"/>
<path d="M270.93 219.326C212.35 219.326 163.63 172.826 161.4 113.806C159.12 53.3864 206.42 2.36645 266.84 0.0764504C327.29 -2.16355 378.28 45.0964 380.57 105.526C382.85 165.946 335.55 216.966 275.13 219.246C273.72 219.296 272.32 219.326 270.93 219.326ZM271.02 19.4565C269.87 19.4565 268.73 19.4764 267.57 19.5264C217.86 21.4064 178.95 63.3764 180.83 113.086C182.71 162.786 224.59 201.766 274.38 199.816C324.09 197.936 363 155.966 361.12 106.266C359.29 57.7065 319.21 19.4565 271.02 19.4565Z" fill="white"/>
<path d="M417.14 275.036L360.86 218.756C359.36 217.256 359.36 214.826 360.86 213.326L379.88 194.306C381.38 192.806 383.81 192.806 385.31 194.306L441.59 250.586C443.09 252.086 443.09 254.516 441.59 256.016L422.57 275.036C421.07 276.536 418.64 276.536 417.14 275.036Z" fill="white"/>
<path d="M354.33 206.406L349.05 201.126C347.55 199.626 347.55 197.196 349.05 195.696L362.25 182.496C363.75 180.996 366.18 180.996 367.68 182.496L372.96 187.776C374.46 189.276 374.46 191.706 372.96 193.206L359.76 206.406C358.26 207.906 355.83 207.906 354.33 206.406Z" fill="white"/>
</svg>
